<svg width="24" height="25" viewBox="0 0 24 25" fill="none" xmlns="http://www.w3.org/2000/svg">
<path d="M0 0.568054H24V24.5681H0V0.568054Z" fill="#141414"/>
<path d="M8.516 9.398C8.948 8.758 9.54 8.238 10.292 7.838C11.06 7.438 11.932 7.238 12.908 7.238C14.044 7.238 15.068 7.518 15.98 8.078C16.908 8.638 17.636 9.438 18.164 10.478C18.708 11.502 18.98 12.694 18.98 14.054C18.98 15.414 18.708 16.622 18.164 17.678C17.636 18.718 16.908 19.526 15.98 20.102C15.068 20.678 14.044 20.966 12.908 20.966C11.916 20.966 11.044 20.774 10.292 20.39C9.556 19.99 8.964 19.478 8.516 18.854V20.75H5.156V2.99H8.516V9.398ZM15.548 14.054C15.548 13.254 15.38 12.566 15.044 11.99C14.724 11.398 14.292 10.95 13.748 10.646C13.22 10.342 12.644 10.19 12.02 10.19C11.412 10.19 10.836 10.35 10.292 10.67C9.764 10.974 9.332 11.422 8.996 12.014C8.676 12.606 8.516 13.302 8.516 14.102C8.516 14.902 8.676 15.598 8.996 16.19C9.332 16.782 9.764 17.238 10.292 17.558C10.836 17.862 11.412 18.014 12.02 18.014C12.644 18.014 13.22 17.854 13.748 17.534C14.292 17.214 14.724 16.758 15.044 16.166C15.38 15.574 15.548 14.87 15.548 14.054Z" fill="white"/>
</svg>
