<svg width="24" height="24" viewBox="0 0 24 24" fill="none" xmlns="http://www.w3.org/2000/svg">
<rect width="24" height="24" fill="black"/>
<path d="M8.902 11.183C9.25 10.703 9.724 10.313 10.324 10.013C10.936 9.701 11.614 9.545 12.358 9.545C13.234 9.545 14.026 9.755 14.734 10.175C15.442 10.595 16 11.195 16.408 11.975C16.816 12.743 17.02 13.625 17.02 14.621C17.02 15.617 16.816 16.511 16.408 17.303C16 18.083 15.436 18.695 14.716 19.139C14.008 19.571 13.222 19.787 12.358 19.787C11.59 19.787 10.906 19.637 10.306 19.337C9.718 19.037 9.25 18.653 8.902 18.185V19.625H6.85V6.305H8.902V11.183ZM14.932 14.621C14.932 13.937 14.788 13.349 14.5 12.857C14.224 12.353 13.852 11.975 13.384 11.723C12.928 11.459 12.436 11.327 11.908 11.327C11.392 11.327 10.9 11.459 10.432 11.723C9.976 11.987 9.604 12.371 9.316 12.875C9.04 13.379 8.902 13.973 8.902 14.657C8.902 15.341 9.04 15.941 9.316 16.457C9.604 16.961 9.976 17.345 10.432 17.609C10.9 17.873 11.392 18.005 11.908 18.005C12.436 18.005 12.928 17.873 13.384 17.609C13.852 17.333 14.224 16.937 14.5 16.421C14.788 15.905 14.932 15.305 14.932 14.621Z" fill="white"/>
</svg>
